<svg xmlns="http://www.w3.org/2000/svg" viewBox="0 0 32 32" width="32" height="32">
  <title>Behance</title>
  <path d="m9.2583 6.0036c0.93579 0 1.7863 0.079982 2.5594 0.25061 0.76916 0.17329 1.4263 0.4399 1.9796 0.81315 0.54654 0.37325 0.97712 0.86647 1.2797 1.493 0.29993 0.62653 0.45323 1.3997 0.45323 2.3062 0 0.98645-0.22662 1.8129-0.67585 2.4794-0.45057 0.66652-1.1158 1.1997-2.0022 1.6263 1.2077 0.34659 2.1009 0.95979 2.6954 1.8263 0.5972 0.8798 0.88647 1.9329 0.88647 3.146 0 0.99978-0.1733 1.8529-0.54654 2.5728-0.37325 0.73317-0.89314 1.333-1.5463 1.7996-0.63986 0.4639-1.3997 0.79982-2.2262 1.0224-0.81315 0.21995-1.669 0.33859-2.5461 0.33859h-9.5592v-19.665h9.2486zm13.333 16.212c0.58654 0.57054 1.4303 0.85714 2.5248 0.85714 0.78649 0 1.4663-0.19729 2.0395-0.59587 0.56521-0.38658 0.90646-0.81315 1.0398-1.2531h3.4499c-0.53721 1.7063-1.397 2.9327-2.5328 3.6659-1.1331 0.7465-2.5114 1.1064-4.1058 1.1064-1.1158 0-2.1115-0.17329-3.0287-0.53321-0.89713-0.35992-1.653-0.86647-2.2928-1.5197-0.61853-0.65319-1.0971-1.4397-1.4357-2.3595-0.33726-0.9198-0.49722-1.9329-0.49722-3.026 0-1.0704 0.17996-2.0529 0.53721-2.9727 0.35992-0.93313 0.85848-1.7063 1.493-2.3861 0.65985-0.67985 1.417-1.1931 2.3142-1.5916 0.89713-0.39858 1.8663-0.57721 2.9593-0.57721 1.2131 0 2.2528 0.21862 3.1726 0.69718 0.89313 0.45323 1.6263 1.0931 2.2128 1.8663 0.58654 0.78116 0.99978 1.6796 1.2531 2.6927 0.25328 0.99978 0.33326 2.0529 0.27994 3.1726h-10.251c0 1.1198 0.37325 2.1755 0.94646 2.7527l-0.10664 0.03999zm-13.65 0.06665c0.42257 0 0.82648-0.03999 1.2077-0.12397 0.38658-0.07998 0.7305-0.21995 1.0171-0.39991 0.27994-0.17996 0.51988-0.43724 0.69318-0.77716 0.1733-0.31993 0.25328-0.75983 0.25328-1.2797 0-0.99978-0.29327-1.7196-0.85314-2.1595-0.57321-0.42657-1.3197-0.63986-2.2528-0.63986h-4.6776v5.3988h4.6123v-0.03999zm18.139-7.5317c-0.46923-0.51322-1.2531-0.78916-2.2088-0.78916-0.62386 0-1.1397 0.09864-1.5543 0.31726-0.40258 0.19996-0.73317 0.46656-0.98645 0.78649s-0.42257 0.63986-0.52255 0.99978c-0.09998 0.34659-0.15996 0.66652-0.17996 0.94646h6.3479c-0.09331-0.99978-0.4399-1.7329-0.90647-2.2528v0.01333zm-18.379-0.81982c0.76516 0 1.3997-0.17863 1.8996-0.54921 0.49856-0.35992 0.7385-0.95979 0.7385-1.7836 0-0.45856-0.09331-0.83315-0.23995-1.1277-0.1733-0.29327-0.39991-0.51988-0.66652-0.68252-0.27994-0.1653-0.59987-0.27994-0.95979-0.34259-0.35992-0.070651-0.7465-0.098645-1.1198-0.098645h-4.0378v4.5856h4.3857zm12.128-6.6092h7.9556v1.9382h-7.9556v-1.9542 0.01333z" stroke-width="1.333"/>
</svg>
