<svg xmlns="http://www.w3.org/2000/svg" viewBox="0 0 32 32">
  <title>GitLab logo</title>
  <g stroke-width=".16656">
    <path d="m31.463 12.792-0.04497-0.11493-4.354-11.363a1.1343 1.1343 0 0 0-0.44806-0.53967 1.166 1.166 0 0 0-1.3325 0.071623 1.166 1.166 0 0 0-0.38643 0.58631l-2.9399 8.9945h-11.904l-2.9399-8.9945a1.1426 1.1426 0 0 0-0.38643-0.58797 1.166 1.166 0 0 0-1.3325-0.071623 1.1443 1.1443 0 0 0-0.44806 0.53967l-4.3623 11.358-0.043307 0.11493a8.0851 8.0851 0 0 0 2.6817 9.3443l0.014991 0.01166 0.039976 0.02832 6.6326 4.967 3.2813 2.4835 1.9988 1.5091a1.3442 1.3442 0 0 0 1.6257 0l1.9988-1.5091 3.2813-2.4835 6.6726-4.997 0.01666-0.01333a8.0884 8.0884 0 0 0 2.6784-9.3343z"/>
    <path d="m31.466 12.197-0.04497-0.11493a14.708 14.708 0 0 0-5.8548 2.6317l-9.5625 7.2306c3.2563 2.4635 6.0913 4.6039 6.0913 4.6039l6.6726-4.997 0.01666-0.01333a8.0884 8.0884 0 0 0 2.6817-9.341z"/>
    <path d="m9.9121 26.548 3.2813 2.4835 1.9988 1.5091a1.3442 1.3442 0 0 0 1.6257 0l1.9988-1.5091 3.2813-2.4835s-2.8383-2.147-6.0946-4.6039c-3.2563 2.4568-6.0913 4.6039-6.0913 4.6039z"/>
    <path d="m6.4392 14.713a14.689 14.689 0 0 0-5.8531-2.6384l-0.043307 0.11493a8.0851 8.0851 0 0 0 2.6817 9.3443l0.014991 0.01166 0.039976 0.02832 6.6326 4.967s2.8316-2.1404 6.0913-4.6039z"/>
  </g>
</svg>
