<svg xmlns="http://www.w3.org/2000/svg" viewBox="0 0 80.311 72.49" width="32" height="32" fill="currentColor">
  <title>Libre.fm</title>
  <g transform="translate(-33.091 -34.962)">
    <path d="m82.893 43.735c-15.692-9.0593-33.581-10.872-49.803-6.4987l2.5715 9.5964c13.766-3.7148 28.945-2.1923 42.267 5.4986 13.316 7.6888 22.244 20.065 25.905 33.838l9.5673-2.5638c-4.3185-16.232-14.817-30.808-30.512-39.87m-10.31 17.857c-10.767-6.2161-23.032-7.4586-34.16-4.4551l2.1087 7.8698c9.1154-2.4696 19.169-1.4721 27.988 3.6203 8.8159 5.0901 14.724 13.29 17.14 22.41l7.8698-2.1087c-2.9591-11.131-10.186-21.124-20.947-27.337m-9.9161 17.175c-6.023-3.4766-12.888-4.1592-19.108-2.4654l1.7447 6.5109c4.5556-1.248 9.5859-0.75962 13.996 1.787 4.4064 2.544 7.361 6.649 8.5566 11.21l6.4826-1.737c-1.6386-6.2312-5.6481-11.828-11.671-15.305zm-9.0249 15.632c-3.3451-1.9315-7.6369-0.78132-9.5673 2.5638-1.9315 3.3451-0.771 7.6189 2.5741 9.5515 3.3451 1.9314 7.6086 0.78898 9.5409-2.5561 1.9315-3.3451 0.79904-7.6266-2.5458-9.5568" stroke-width=".26458"/>
  </g>
</svg>
