<svg xmlns="http://www.w3.org/2000/svg" version="1.1" viewBox="0 0 500 500" class="site-logo" fill="#f7f7f7" role="img" aria-labelledby="logoTitle logoDesc">
  <title id="logoTitle">Jdmlabs Logo Icon</title>
  <desc id="logoDesc">A gear used as the site logo for JdmLabs website.</desc>
  <g transform="scale(.84663)">
    <path d="m532.49 250.34c-2.24-11.928-5.334-23.571-9.238-34.762l42.273-24.422 7.947-4.59-4.587-7.947-35.766-61.959-4.59-7.956-7.953 4.593-42.215 24.398c-7.932-9.183-16.459-17.711-25.471-25.469l24.416-42.231 4.6-7.953-7.956-4.593-61.959-35.759-7.95-4.59-4.59 7.95-24.423 42.305c-11.27-3.938-22.919-7.035-34.795-9.248v-58.112h-89.888v58.118c-11.769 2.206-23.394 5.303-34.719 9.25l-24.428-42.314-4.59-7.95-7.95 4.59-61.956 35.766-7.947 4.587 4.584 7.95 24.364 42.247c-9.104 7.855-17.62 16.38-25.435 25.453l-42.271-24.394-7.947-4.587-40.356 69.872-4.59 7.95 7.95 4.59 42.341 24.459c-3.935 11.267-7.032 22.904-9.247 34.761h-58.147v89.888h58.149c2.215 11.854 5.309 23.495 9.247 34.756l-42.335 24.422-7.953 4.59 4.59 7.953 35.765 61.962 4.59 7.949 7.95-4.587 42.271-24.395c7.815 9.076 16.331 17.599 25.432 25.453l-24.364 42.247-4.583 7.949 7.947 4.587 61.958 35.766 7.95 4.59 4.59-7.949 24.425-42.305c11.178 3.901 22.806 6.992 34.725 9.234v58.122h89.887v-58.125c11.946-2.236 23.596-5.333 34.792-9.238l24.426 42.305 4.59 7.95 7.949-4.59 61.959-35.766 7.956-4.59-4.599-7.953-24.416-42.23c9.024-7.772 17.556-16.311 25.478-25.499l50.159 28.984 4.594-7.949 35.765-61.922 4.591-7.95-7.947-4.59-42.274-24.422c3.905-11.19 6.999-22.831 9.238-34.762h58.078v-89.888h-9.18zm-140.1 44.945c0 53.538-43.556 97.094-97.097 97.094-53.538 0-97.094-43.556-97.094-97.094s43.556-97.094 97.094-97.094 97.097 43.556 97.097 97.094z"/>
  </g>
</svg>
